:FULLY-SPECIFIED
:DEGREES
237
root 0.511249 15.7942 -2.98943 502.076 -83.9116 -495.691
lowerback 3.33998 3.93884 0.034514
upperback -1.96215 5.29495 1.14929
thorax -3.99692 2.64492 0.803509
lowerneck -16.9166 -0.500803 1.89953
upperneck 18.0572 -0.529486 -3.48285
head 8.39169 -0.518251 -1.55402
rclavicle -5.24792e-014 -1.13307e-014
rhumerus -16.116 4.57243 -90.3358
rradius 39.3133
rwrist -6.1644
rhand -32.9492 -16.9175
rfingers 7.12502
rthumb -6.16522 -46.8078
lclavicle -5.24792e-014 -1.13307e-014
lhumerus -41.8547 2.12294 93.8803
lradius 17.7125
lwrist -1.48495
lhand -29.2703 15.5245
lfingers 7.12502
lthumb -2.6128 45.4882
rfemur 13.54 4.99458 30.7227
rtibia 1.90833e-014
rfoot -8.60222 -11.2003
rtoes -18.6401
lfemur -35.1797 -13.3989 -9.65009
ltibia 22.6327
lfoot -15.6081 19.739
ltoes -15.0674
238
root 0.499928 15.7865 -2.96947 503.397 -83.7474 -496.943
lowerback 3.27175 3.92692 0.00811187
upperback -1.96688 5.2769 1.14052
thorax -3.96452 2.63674 0.815216
lowerneck -16.9281 -0.417734 1.92019
upperneck 18.0793 -0.42222 -3.47496
head 8.40449 -0.465703 -1.54237
rclavicle 1.27222e-014 1.94809e-014
rhumerus -16.3849 4.43998 -90.5269
rradius 38.6973
rwrist -6.13276
rhand -32.9246 -16.944
rfingers 7.12502
rthumb -6.14139 -46.835
lclavicle 1.27222e-014 1.94809e-014
lhumerus -41.6632 2.02793 93.8543
lradius 17.7323
lwrist -1.4739
lhand -29.4546 15.4457
lfingers 7.12502
lthumb -2.7907 45.4072
rfemur 14.0932 4.90309 30.564
rtibia 0
rfoot -8.41227 -10.9164
rtoes -19.6227
lfemur -34.9249 -13.4691 -9.7907
ltibia 22.5228
lfoot -15.6847 19.9482
ltoes -14.9545
239
root 0.487687 15.7761 -2.94973 504.462 -83.5839 -497.911
lowerback 3.17654 3.93052 -0.0180491
upperback -1.98942 5.27953 1.13185
thorax -3.93576 2.63884 0.826699
lowerneck -16.8789 -0.381061 1.96446
upperneck 18.0501 -0.385006 -3.46691
head 8.38687 -0.443806 -1.54177
rclavicle -7.15625e-014 -5.1684e-015
rhumerus -16.7167 4.13657 -90.691
rradius 38.0304
rwrist -5.95306
rhand -32.8339 -16.9563
rfingers 7.12502
rthumb -6.05388 -46.8498
lclavicle -7.15625e-014 -5.1684e-015
lhumerus -41.4285 1.87176 93.8298
lradius 17.7545
lwrist -1.44405
lhand -29.4314 15.4823
lfingers 7.12502
lthumb -2.76832 45.4441
rfemur 14.613 4.8043 30.3973
rtibia 4.13472e-014
rfoot -8.2035 -10.6052
rtoes -20.5693
lfemur -34.5359 -12.745 -10.3037
ltibia 22.5773
lfoot -15.3115 19.2848
ltoes -14.8351
240
root 0.470401 15.7614 -2.92969 505.398 -83.3128 -498.855
lowerback 3.15347 3.97362 0.00747417
upperback -1.97884 5.33843 1.14806
thorax -3.91213 2.6677 0.82746
lowerneck -16.9203 -0.359268 1.90592
upperneck 18.1015 -0.36249 -3.35791
head 8.41277 -0.426296 -1.49362
rclavicle -9.54166e-015 -1.35174e-014
rhumerus -17.0681 3.70439 -90.786
rradius 37.2474
rwrist -5.44026
rhand -32.5331 -16.9614
rfingers 7.12502
rthumb -5.76344 -46.8631
lclavicle -9.54166e-015 -1.35174e-014
lhumerus -41.1305 1.77138 93.7515
lradius 17.7217
lwrist -1.47186
lhand -29.6494 15.4686
lfingers 7.12502
lthumb -2.97883 45.4276
rfemur 15.2744 4.77589 30.2977
rtibia -2.54444e-014
rfoot -8.00078 -10.2053
rtoes -21.4427
lfemur -33.9084 -11.689 -10.9287
ltibia 22.8861
lfoot -14.6041 18.3476
ltoes -15.2759
241
root 0.447909 15.7409 -2.90715 506.442 -83.0841 -499.957
lowerback 3.07649 4.00651 -0.00482974
upperback -1.93826 5.3806 1.14272
thorax -3.82803 2.68929 0.833596
lowerneck -16.8685 -0.3221 1.95187
upperneck 18.0875 -0.336738 -3.29303
head 8.39954 -0.403734 -1.47571
rclavicle 9.54166e-015 7.7526e-015
rhumerus -17.4678 3.27889 -90.8999
rradius 36.4273
rwrist -5.06476
rhand -32.3523 -17.0483
rfingers 7.12502
rthumb -5.5889 -46.9546
lclavicle 9.54166e-015 7.7526e-015
lhumerus -40.7831 1.76663 93.5618
lradius 17.6498
lwrist -1.76865
lhand -29.6434 15.429
lfingers 7.12502
lthumb -2.97304 45.388
rfemur 16.0026 4.72131 30.1485
rtibia 4.45278e-014
rfoot -7.56455 -9.9551
rtoes -22.8647
lfemur -33.1338 -10.5925 -11.672
ltibia 23.3629
lfoot -14.547 17.1044
ltoes -14.13
242
root 0.424656 15.7044 -2.88262 507.542 -82.8098 -501.072
lowerback 2.98812 4.0488 -0.0313843
upperback -1.9351 5.43602 1.17752
thorax -3.78193 2.71816 0.887046
lowerneck -16.9457 -0.30993 1.92522
upperneck 18.2336 -0.318292 -3.26983
head 8.46339 -0.396167 -1.4637
rclavicle 3.81667e-014 3.57812e-015
rhumerus -17.9232 2.81571 -90.9541
rradius 35.5498
rwrist -4.66514
rhand -32.1773 -17.1493
rfingers 7.12502
rthumb -5.41996 -47.06
lclavicle 3.81667e-014 3.57812e-015
lhumerus -40.4649 1.68731 93.5099
lradius 17.718
lwrist -1.49014
lhand -29.753 15.3605
lfingers 7.12502
lthumb -3.07892 45.318
rfemur 16.7084 4.72218 29.9863
rtibia 6.36111e-015
rfoot -7.23926 -9.62424
rtoes -23.8707
lfemur -32.3699 -9.66484 -12.2825
ltibia 23.89
lfoot -14.259 16.0165
ltoes -13.409
243
root 0.392483 15.7197 -2.85769 509.031 -82.4989 -502.633
lowerback 2.93212 4.12493 -0.0621017
upperback -1.93752 5.53568 1.17025
thorax -3.7571 2.76863 0.894281
lowerneck -16.9394 -0.306524 1.96352
upperneck 18.3531 -0.33038 -3.23921
head 8.50227 -0.397118 -1.46267
rclavicle -9.22361e-014 -3.4191e-014
rhumerus -18.5315 2.30411 -91.026
rradius 34.7177
rwrist -4.11646
rhand -32.1384 -17.1189
rfingers 7.12502
rthumb -5.3824 -47.0305
lclavicle -9.22361e-014 -3.4191e-014
lhumerus -40.1443 1.68921 93.3179
lradius 17.6625
lwrist -1.83529
lhand -29.8047 15.4192
lfingers 7.12502
lthumb -3.12881 45.376
rfemur 17.3961 4.78855 29.7379
rtibia 4.13472e-014
rfoot -6.72742 -9.21556
rtoes -25.0868
lfemur -31.721 -9.50996 -12.546
ltibia 24.2272
lfoot -13.1926 15.8987
ltoes -12.9403
244
root 0.358881 15.7219 -2.83099 510.809 -82.284 -504.504
lowerback 2.88661 4.17916 -0.17305
upperback -1.93891 5.6017 1.12007
thorax -3.73986 2.804 0.903196
lowerneck -16.8663 -0.284328 1.98546
upperneck 18.3907 -0.32366 -3.15367
head 8.50227 -0.38349 -1.43658
rclavicle 6.04305e-014 1.47101e-014
rhumerus -19.1147 1.46018 -91.0078
rradius 33.7275
rwrist -2.68315
rhand -31.5118 -17.3285
rfingers 7.12502
rthumb -4.7773 -47.2546
lclavicle 6.04305e-014 1.47101e-014
lhumerus -39.7803 1.7606 93.0619
lradius 17.6925
lwrist -1.70911
lhand -29.9052 15.4485
lfingers 7.12502
lthumb -3.22593 45.4038
rfemur 18.1098 4.80513 29.3495
rtibia -2.8625e-014
rfoot -6.16509 -8.76241
rtoes -26.2418
lfemur -31.458 -10.2731 -12.4592
ltibia 24.4724
lfoot -12.1281 16.9783
ltoes -14.1341
245
root 0.324214 15.7217 -2.80809 513.797 -82.2286 -507.583
lowerback 2.8818 4.19943 -0.635863
upperback -1.99512 5.60759 1.0563
thorax -3.83403 2.81865 1.08935
lowerneck -16.8681 -0.262964 1.93566
upperneck 18.613 -0.307782 -3.03351
head 8.57882 -0.36898 -1.38862
rclavicle -6.12257e-014 -9.93923e-015
rhumerus -19.9503 1.51341 -91.2828
rradius 33.0656
rwrist -4.00003
rhand -32.6965 -17.3924
rfingers 7.12502
rthumb -5.92116 -47.2896
lclavicle -6.12257e-014 -9.93923e-015
lhumerus -39.5005 1.67837 92.9402
lradius 17.7546
lwrist -1.63208
lhand -29.9901 15.533
lfingers 7.12502
lthumb -3.30787 45.487
rfemur 18.8364 4.76147 28.7244
rtibia 2.8625e-014
rfoot -5.36316 -8.28319
rtoes -27.4301
lfemur -31.0937 -10.5783 -12.8116
ltibia 24.5493
lfoot -10.5589 17.172
ltoes -15.4219
246
root 0.289773 15.7245 -2.78677 518.424 -82.3403 -512.25
lowerback 2.80698 4.21313 -1.35735
upperback -2.07519 5.5893 0.86572
thorax -3.92529 2.82731 1.29393
lowerneck -16.889 -0.273649 1.94389
upperneck 18.8636 -0.35845 -2.88396
head 8.66667 -0.378532 -1.34874
rclavicle 3.57812e-014 5.76476e-015
rhumerus -20.7048 0.474535 -91.243
rradius 32.0315
rwrist -3.11289
rhand -32.2743 -16.97
rfingers 7.12502
rthumb -5.51362 -46.8783
lclavicle 3.57812e-014 5.76476e-015
lhumerus -39.2023 1.54065 92.7239
lradius 17.7763
lwrist -1.7055
lhand -29.9644 15.6478
lfingers 7.12502
lthumb -3.28303 45.6023
rfemur 19.4423 4.64905 27.7804
rtibia -3.18055e-015
rfoot -4.42997 -7.9248
rtoes -28.4083
lfemur -30.365 -9.44653 -14.0607
ltibia 24.5973
lfoot -9.05914 15.93
ltoes -14.9315
247
root 0.254018 15.7305 -2.76563 523.525 -82.5264 -517.336
lowerback 2.65207 4.18635 -2.13775
upperback -2.15068 5.51442 0.654748
thorax -3.96792 2.80925 1.5205
lowerneck -16.8767 -0.289701 1.907
upperneck 19.0318 -0.39731 -2.76925
head 8.72118 -0.388727 -1.31047
rclavicle -1.04958e-013 -2.80286e-014
rhumerus -21.4668 -0.360368 -91.3248
rradius 30.8847
rwrist -2.15216
rhand -32.662 -16.7503
rfingers 7.12502
rthumb -5.88793 -46.6485
lclavicle -1.04958e-013 -2.80286e-014
lhumerus -38.8162 1.23352 92.6194
lradius 17.7934
lwrist -1.54565
lhand -30.1994 15.6215
lfingers 7.12502
lthumb -3.51004 45.5724
rfemur 18.2466 4.40276 26.7188
rtibia 3.12021
rfoot -4.66515 -7.57681
rtoes -29.3754
lfemur -29.6398 -7.82061 -15.5494
ltibia 24.6565
lfoot -8.0266 14.1796
ltoes -14.2312
248
root 0.222168 15.7394 -2.74097 526.976 -82.7312 -520.661
lowerback 2.41357 4.1207 -2.64678
upperback -2.24351 5.40425 0.515909
thorax -3.95961 2.76701 1.67998
lowerneck -16.81 -0.326795 1.74705
upperneck 19.1502 -0.44505 -2.59845
head 8.74928 -0.405601 -1.23283
rclavicle -1.04163e-013 -1.47101e-014
rhumerus -22.3122 -0.84323 -91.2909
rradius 29.9352
rwrist -1.79714
rhand -32.7437 -17.2385
rfingers 7.12502
rthumb -5.96673 -47.1345
lclavicle -1.04163e-013 -1.47101e-014
lhumerus -38.3423 1.10587 92.441
lradius 17.7647
lwrist -1.64018
lhand -30.4808 15.5026
lfingers 7.12502
lthumb -3.78178 45.4488
rfemur 14.5189 3.96662 25.8297
rtibia 10.5215
rfoot -6.54008 -6.96353
rtoes -30.1821
lfemur -29.2714 -6.81248 -16.6268
ltibia 24.8553
lfoot -7.315 12.9577
ltoes -13.2996
